<svg width="132" height="133" viewBox="0 0 132 133" fill="none" xmlns="http://www.w3.org/2000/svg">
<path d="M33.3156 79.236C14.1423 79.236 0.0223384 68.7281 0.0223384 51.8716C-0.120557 48.6211 0.423343 45.3769 1.61858 42.3507C2.81383 39.3245 4.63354 36.5842 6.95908 34.3086C9.28461 32.033 12.0638 30.2731 15.1152 29.1438C18.1666 28.0145 21.4218 27.5411 24.6685 27.7545H24.7597C24.9202 27.7498 25.0783 27.7135 25.2248 27.6477C25.3712 27.5818 25.5034 27.4878 25.6135 27.3709C25.7236 27.254 25.8096 27.1165 25.8666 26.9664C25.9236 26.8162 25.9504 26.6563 25.9455 26.4958V18.9067C25.9985 14.0342 27.9775 9.38062 31.4503 5.96248C34.9232 2.54434 39.6076 0.639419 44.4803 0.663806H121.119V27.791H31.7285C31.0495 27.7294 30.3652 27.8178 29.7241 28.05C29.0831 28.2821 28.5008 28.6524 28.0187 29.1345C27.5366 29.6166 27.1664 30.1988 26.9342 30.8399C26.702 31.481 26.6136 32.1652 26.6752 32.8443V45.9244C26.5988 46.9406 26.7427 47.9612 27.0971 48.9166C27.4514 49.872 28.0079 50.7397 28.7284 51.4602C29.449 52.1808 30.3167 52.7373 31.2721 53.0916C32.2275 53.446 33.2481 53.5899 34.2643 53.5135H98.388C102.819 53.4006 107.226 54.1904 111.342 55.8349C115.458 57.4793 119.196 59.944 122.33 63.0789C125.463 66.2138 127.925 69.9535 129.568 74.0703C131.21 78.187 131.997 82.5949 131.882 87.0257V99.0113C131.995 103.444 131.205 107.853 129.561 111.971C127.917 116.088 125.453 119.829 122.318 122.965C119.184 126.101 115.445 128.567 111.328 130.214C107.211 131.86 102.802 132.652 98.3698 132.542H6.89987V105.36H97.8042C98.8204 105.436 99.841 105.292 100.796 104.938C101.752 104.584 102.62 104.027 103.34 103.307C104.061 102.586 104.617 101.718 104.971 100.763C105.326 99.8075 105.47 98.7869 105.393 97.7708V86.825C105.47 85.8089 105.326 84.7882 104.971 83.8328C104.617 82.8774 104.061 82.0098 103.34 81.2892C102.62 80.5687 101.752 80.0122 100.796 79.6579C99.841 79.3035 98.8204 79.1596 97.8042 79.236H33.3156Z" fill="#FF6464"/>
</svg>
